<svg xmlns="http://www.w3.org/2000/svg" viewBox="0 0 720 480" role="img" aria-labelledby="title desc">
  <title id="title">Convenience store illustration</title>
  <desc id="desc">A clean illustration of store shelves, drinks and a checkout counter.</desc>
  <rect width="720" height="480" rx="36" fill="#fff7ed"/>
  <rect x="58" y="74" width="604" height="330" rx="26" fill="#ffffff" stroke="#fed7aa" stroke-width="8"/>
  <rect x="84" y="100" width="280" height="26" rx="13" fill="#b91c1c"/>
  <rect x="84" y="150" width="252" height="170" rx="16" fill="#f8fafc" stroke="#e2e8f0" stroke-width="6"/>
  <path d="M104 205h212M104 260h212" stroke="#cbd5e1" stroke-width="6"/>
  <rect x="112" y="167" width="30" height="30" rx="8" fill="#fbbf24"/><rect x="151" y="167" width="42" height="30" rx="8" fill="#fb7185"/><rect x="204" y="167" width="34" height="30" rx="8" fill="#60a5fa"/><rect x="248" y="167" width="56" height="30" rx="8" fill="#34d399"/>
  <rect x="112" y="220" width="48" height="30" rx="8" fill="#a78bfa"/><rect x="170" y="220" width="34" height="30" rx="8" fill="#fb923c"/><rect x="214" y="220" width="42" height="30" rx="8" fill="#2dd4bf"/><rect x="266" y="220" width="38" height="30" rx="8" fill="#f87171"/>
  <rect x="391" y="151" width="228" height="169" rx="16" fill="#111827"/>
  <rect x="420" y="180" width="58" height="96" rx="12" fill="#fbbf24"/><rect x="489" y="167" width="44" height="109" rx="12" fill="#ef4444"/><rect x="544" y="194" width="48" height="82" rx="12" fill="#38bdf8"/>
  <rect x="84" y="340" width="535" height="40" rx="14" fill="#1f2937"/>
  <circle cx="601" cy="116" r="18" fill="#fbbf24"/>
</svg>
