<svg xmlns="http://www.w3.org/2000/svg" viewBox="0 0 720 480" role="img" aria-labelledby="title desc">
  <title id="title">Phone repair illustration</title>
  <desc id="desc">Smartphone, repair tools and diagnostic symbols on a workbench.</desc>
  <rect width="720" height="480" rx="36" fill="#eff6ff"/>
  <rect x="70" y="74" width="580" height="332" rx="30" fill="#ffffff" stroke="#bfdbfe" stroke-width="8"/>
  <rect x="245" y="96" width="230" height="286" rx="34" fill="#0f172a"/>
  <rect x="262" y="120" width="196" height="228" rx="18" fill="#dbeafe"/>
  <path d="M287 304 433 159" stroke="#ef4444" stroke-width="7" stroke-linecap="round" opacity=".85"/>
  <path d="M308 330 455 184" stroke="#ef4444" stroke-width="5" stroke-linecap="round" opacity=".55"/>
  <circle cx="360" cy="365" r="8" fill="#64748b"/>
  <path d="M128 174h78l-20 20h-58z" fill="#fbbf24"/>
  <rect x="122" y="195" width="18" height="112" rx="9" fill="#334155"/>
  <path d="M552 160c34 0 60 26 60 60s-26 60-60 60" fill="none" stroke="#b91c1c" stroke-width="18" stroke-linecap="round"/>
  <path d="M552 192v56M524 220h56" stroke="#b91c1c" stroke-width="12" stroke-linecap="round"/>
  <circle cx="153" cy="347" r="25" fill="#60a5fa"/><circle cx="202" cy="347" r="25" fill="#34d399"/>
</svg>
